<?xml version="1.0" encoding="UTF-8"?>
<svg id="Layer_1" data-name="Layer 1" xmlns="http://www.w3.org/2000/svg" viewBox="0 0 1241.26 346.94">
  <defs>
    <style>
      .cls-1 {
        fill: #ca6b4b;
      }

      .cls-2 {
        fill: #1c1c1c;
      }

      .cls-3 {
        fill: #9db375;
      }

      .cls-4 {
        fill: #1a1a1a;
      }

      .cls-5 {
        fill: #1b1b1b;
      }
    </style>
  </defs>
  <path class="cls-3" d="M311.99,66.27c6.9-1.22,9.14-.55,11.59,5.94,12.59,33.36,14.83,97.14,8.6,132.24-11.56,65.08-61.86,116.4-124.74,135.26-5.53,1.66-21.85,6.07-26.81,6.28-1.59.07-2.49-.01-3.31-1.54,11.5-34.33,24.58-68.31,41.57-100.3,12.9-24.29,28.72-46.79,45.41-68.59,3.2-4.19,15.33-14.82,11.07-20.13-4.8-5.98-14.86,6.55-18.06,10.13-44.55,49.68-71.08,115.9-92.84,178.16-3.82,7.37-8.18.45-9.87-4.52-13.99-41.19-12.03-99.84,2.99-140.36,20.94-56.48,80.02-104.55,135.15-125.85,4.87-1.88,14.65-5.91,19.27-6.73Z"/>
  <path class="cls-1" d="M137.26,344.03c-2.86,2.86-39.16-8.31-44.98-10.52C54.95,319.38,3.75,286.34.27,242.52c-6.11-76.87,93.35-123.87,152.93-80.85-3.43,8.89-8.21,17.28-11.62,26.18-17.2,44.79-17.63,87.83-9.07,134.43.54,2.95,5.54,20.96,4.75,21.75Z"/>
  <path class="cls-4" d="M798.76,78.03c28.24,44.3,55.9,89.02,83.01,134.01l1.99-134.01h35.5v199h-38l-81.76-130.71-2.24-1.29v132h-37V79.53c0-.11,1.39-1.5,1.5-1.5h37Z"/>
  <path class="cls-2" d="M537.26,134.03c-.25-21.17-19.06-27.43-37.54-26.04-24.81,1.86-35.01,29.89-11.77,42.86,28.11,15.69,77,12.64,88.26,52.74,25.09,89.29-127.02,103.76-141.71,29.71-.4-2.02-2.25-14.26.26-14.26h36c2.37,3.17,1.56,7.61,3.31,11.69,9.57,22.29,59.83,22.91,65.92-3.45,6.43-27.88-42.16-32.99-59.71-39.76-19.56-7.55-39.68-21.7-42.96-44.04-11.73-79.77,118.22-91.19,135.65-25.65.61,2.3,3.5,16.21.79,16.21h-36.5Z"/>
  <path class="cls-5" d="M1092.26,134.03h-37c-2.31-21.97-17.32-27.54-37.54-26.04-24.26,1.79-36.45,29.37-11.77,42.86,29.58,16.17,80.42,13.29,88.67,57.33,11.11,59.27-54.3,84.17-101.9,67.9-24.93-8.53-42.65-29.82-41.46-57.04h38c-1.71,30.5,53.52,37.66,65.4,14.9,4.15-7.96,4.37-13.93,0-21.8-8.63-15.54-51.82-21.25-69.42-30.58-53.56-28.38-31.88-99.14,25.6-105.44,39.95-4.38,81.61,12.34,81.42,57.92Z"/>
  <path class="cls-5" d="M1241.26,78.03v34h-76.5c-.11,0-1.5,1.39-1.5,1.5v46c0,.11,1.39,1.5,1.5,1.5h67.5v30.5c0,.11-1.39,1.5-1.5,1.5h-67.5v50h78v34h-116V78.03h116Z"/>
  <path class="cls-5" d="M725.26,112.03h-76.5c-.11,0-1.5,1.39-1.5,1.5v46c0,.11,1.39,1.5,1.5,1.5h67.5v30.5c0,.11-1.39,1.5-1.5,1.5h-67.5v50h76.5c.11,0,1.5,1.39,1.5,1.5v32.5h-116V78.03h114.5c.11,0,1.5,1.39,1.5,1.5v32.5Z"/>
  <path class="cls-1" d="M122.03.31c47.03-4.52,82.39,41.81,67.16,86.16-13.25,38.59-60.92,55.85-95.79,33.92C41.71,87.88,61.45,6.13,122.03.31Z"/>
</svg>